<?xml version="1.0" encoding="UTF-8" standalone="no"?>
<!DOCTYPE svg PUBLIC "-//W3C//DTD SVG 1.1//EN"
 "http://www.w3.org/Graphics/SVG/1.1/DTD/svg11.dtd">
<!-- Generated by graphviz version 5.0.0 (20220707.1540)
 -->
<!-- Title: snakemake_dag Pages: 1 -->
<svg width="784pt" height="481pt"
 viewBox="0.00 0.00 784.44 481.00" xmlns="http://www.w3.org/2000/svg" xmlns:xlink="http://www.w3.org/1999/xlink">
<g id="graph0" class="graph" transform="scale(1 1) rotate(0) translate(4 477)">
<title>snakemake_dag</title>
<polygon fill="white" stroke="transparent" points="-4,4 -4,-477 780.44,-477 780.44,4 -4,4"/>
<!-- 0 -->
<g id="node1" class="node">
<title>0</title>
<path fill="none" stroke="#56d88a" stroke-width="2" d="M290.5,-36C290.5,-36 260.5,-36 260.5,-36 254.5,-36 248.5,-30 248.5,-24 248.5,-24 248.5,-12 248.5,-12 248.5,-6 254.5,0 260.5,0 260.5,0 290.5,0 290.5,0 296.5,0 302.5,-6 302.5,-12 302.5,-12 302.5,-24 302.5,-24 302.5,-30 296.5,-36 290.5,-36"/>
<text text-anchor="middle" x="275.5" y="-15.5" font-family="sans" font-size="10.00">all</text>
</g>
<!-- 1 -->
<g id="node2" class="node">
<title>1</title>
<path fill="none" stroke="#d88d56" stroke-width="2" d="M69,-473C69,-473 12,-473 12,-473 6,-473 0,-467 0,-461 0,-461 0,-444 0,-444 0,-438 6,-432 12,-432 12,-432 69,-432 69,-432 75,-432 81,-438 81,-444 81,-444 81,-461 81,-461 81,-467 75,-473 69,-473"/>
<text text-anchor="middle" x="40.5" y="-461" font-family="sans" font-size="10.00">pull_raps_data</text>
<text text-anchor="middle" x="40.5" y="-450" font-family="sans" font-size="10.00">pid: e1001</text>
<text text-anchor="middle" x="40.5" y="-439" font-family="sans" font-size="10.00">sensor: survey</text>
</g>
<!-- 1&#45;&gt;0 -->
<g id="edge1" class="edge">
<title>1&#45;&gt;0</title>
<path fill="none" stroke="grey" stroke-width="2" d="M37.39,-431.93C33.27,-404.2 26.5,-351.86 26.5,-307 26.5,-307 26.5,-307 26.5,-161 26.5,-64.67 168.85,-32.83 238.29,-23.03"/>
<polygon fill="grey" stroke="grey" stroke-width="2" points="238.93,-26.48 248.38,-21.69 238,-19.54 238.93,-26.48"/>
</g>
<!-- 3 -->
<g id="node4" class="node">
<title>3</title>
<path fill="none" stroke="#56c1d8" stroke-width="2" d="M162.5,-396C162.5,-396 66.5,-396 66.5,-396 60.5,-396 54.5,-390 54.5,-384 54.5,-384 54.5,-372 54.5,-372 54.5,-366 60.5,-360 66.5,-360 66.5,-360 162.5,-360 162.5,-360 168.5,-360 174.5,-366 174.5,-372 174.5,-372 174.5,-384 174.5,-384 174.5,-390 168.5,-396 162.5,-396"/>
<text text-anchor="middle" x="114.5" y="-375.5" font-family="sans" font-size="10.00">raps_readable_datetime</text>
</g>
<!-- 1&#45;&gt;3 -->
<g id="edge12" class="edge">
<title>1&#45;&gt;3</title>
<path fill="none" stroke="grey" stroke-width="2" d="M60.72,-431.69C69.64,-422.96 80.2,-412.61 89.59,-403.4"/>
<polygon fill="grey" stroke="grey" stroke-width="2" points="92.13,-405.82 96.82,-396.32 87.23,-400.82 92.13,-405.82"/>
</g>
<!-- 2 -->
<g id="node3" class="node">
<title>2</title>
<path fill="none" stroke="#d88d56" stroke-width="2" d="M487,-473C487,-473 430,-473 430,-473 424,-473 418,-467 418,-461 418,-461 418,-444 418,-444 418,-438 424,-432 430,-432 430,-432 487,-432 487,-432 493,-432 499,-438 499,-444 499,-444 499,-461 499,-461 499,-467 493,-473 487,-473"/>
<text text-anchor="middle" x="458.5" y="-461" font-family="sans" font-size="10.00">pull_raps_data</text>
<text text-anchor="middle" x="458.5" y="-450" font-family="sans" font-size="10.00">pid: e1002</text>
<text text-anchor="middle" x="458.5" y="-439" font-family="sans" font-size="10.00">sensor: survey</text>
</g>
<!-- 2&#45;&gt;0 -->
<g id="edge2" class="edge">
<title>2&#45;&gt;0</title>
<path fill="none" stroke="grey" stroke-width="2" d="M454.73,-431.95C449.72,-404.26 441.5,-351.96 441.5,-307 441.5,-307 441.5,-307 441.5,-233 441.5,-192.55 450.17,-173.5 422.5,-144 382.07,-100.9 334.93,-151.1 294.5,-108 279.09,-91.57 274.95,-65.83 274.31,-46.25"/>
<polygon fill="grey" stroke="grey" stroke-width="2" points="277.81,-46.09 274.26,-36.1 270.81,-46.12 277.81,-46.09"/>
</g>
<!-- 5 -->
<g id="node6" class="node">
<title>5</title>
<path fill="none" stroke="#56c1d8" stroke-width="2" d="M581.5,-396C581.5,-396 485.5,-396 485.5,-396 479.5,-396 473.5,-390 473.5,-384 473.5,-384 473.5,-372 473.5,-372 473.5,-366 479.5,-360 485.5,-360 485.5,-360 581.5,-360 581.5,-360 587.5,-360 593.5,-366 593.5,-372 593.5,-372 593.5,-384 593.5,-384 593.5,-390 587.5,-396 581.5,-396"/>
<text text-anchor="middle" x="533.5" y="-375.5" font-family="sans" font-size="10.00">raps_readable_datetime</text>
</g>
<!-- 2&#45;&gt;5 -->
<g id="edge14" class="edge">
<title>2&#45;&gt;5</title>
<path fill="none" stroke="grey" stroke-width="2" d="M478.99,-431.69C488.03,-422.96 498.73,-412.61 508.26,-403.4"/>
<polygon fill="grey" stroke="grey" stroke-width="2" points="510.83,-405.79 515.58,-396.32 505.96,-400.75 510.83,-405.79"/>
</g>
<!-- 3&#45;&gt;0 -->
<g id="edge3" class="edge">
<title>3&#45;&gt;0</title>
<path fill="none" stroke="grey" stroke-width="2" d="M106.2,-359.97C94.22,-333.77 73.5,-281.7 73.5,-235 73.5,-235 73.5,-235 73.5,-161 73.5,-81.33 179.95,-42.5 238.3,-27.2"/>
<polygon fill="grey" stroke="grey" stroke-width="2" points="239.41,-30.53 248.26,-24.69 237.71,-23.74 239.41,-30.53"/>
</g>
<!-- 7 -->
<g id="node8" class="node">
<title>7</title>
<path fill="none" stroke="#56d8b9" stroke-width="2" d="M253,-324C253,-324 132,-324 132,-324 126,-324 120,-318 120,-312 120,-312 120,-300 120,-300 120,-294 126,-288 132,-288 132,-288 253,-288 253,-288 259,-288 265,-294 265,-300 265,-300 265,-312 265,-312 265,-318 259,-324 253,-324"/>
<text text-anchor="middle" x="192.5" y="-309" font-family="sans" font-size="10.00">raps_survey_python_features</text>
<text text-anchor="middle" x="192.5" y="-298" font-family="sans" font-size="10.00">provider_key: rey</text>
</g>
<!-- 3&#45;&gt;7 -->
<g id="edge16" class="edge">
<title>3&#45;&gt;7</title>
<path fill="none" stroke="grey" stroke-width="2" d="M133.78,-359.7C143.42,-351.05 155.23,-340.45 165.73,-331.03"/>
<polygon fill="grey" stroke="grey" stroke-width="2" points="168.34,-333.39 173.44,-324.1 163.66,-328.18 168.34,-333.39"/>
</g>
<!-- 4 -->
<g id="node5" class="node">
<title>4</title>
<path fill="none" stroke="#bed856" stroke-width="2" stroke-dasharray="5,2" d="M224,-470.5C224,-470.5 125,-470.5 125,-470.5 119,-470.5 113,-464.5 113,-458.5 113,-458.5 113,-446.5 113,-446.5 113,-440.5 119,-434.5 125,-434.5 125,-434.5 224,-434.5 224,-434.5 230,-434.5 236,-440.5 236,-446.5 236,-446.5 236,-458.5 236,-458.5 236,-464.5 230,-470.5 224,-470.5"/>
<text text-anchor="middle" x="174.5" y="-455.5" font-family="sans" font-size="10.00">process_time_segments</text>
<text text-anchor="middle" x="174.5" y="-444.5" font-family="sans" font-size="10.00">pid: e1001</text>
</g>
<!-- 4&#45;&gt;3 -->
<g id="edge13" class="edge">
<title>4&#45;&gt;3</title>
<path fill="none" stroke="grey" stroke-width="2" d="M160.28,-434.32C152.73,-425.2 143.32,-413.83 135,-403.77"/>
<polygon fill="grey" stroke="grey" stroke-width="2" points="137.69,-401.53 128.62,-396.06 132.3,-405.99 137.69,-401.53"/>
</g>
<!-- 4&#45;&gt;7 -->
<g id="edge17" class="edge">
<title>4&#45;&gt;7</title>
<path fill="none" stroke="grey" stroke-width="2" d="M177.61,-434.04C179.48,-423.13 181.82,-408.77 183.5,-396 186.22,-375.34 188.56,-351.89 190.17,-334.25"/>
<polygon fill="grey" stroke="grey" stroke-width="2" points="193.67,-334.37 191.08,-324.1 186.7,-333.75 193.67,-334.37"/>
</g>
<!-- 5&#45;&gt;0 -->
<g id="edge4" class="edge">
<title>5&#45;&gt;0</title>
<path fill="none" stroke="grey" stroke-width="2" d="M526.26,-359.8C510.88,-320.86 477.98,-223.19 498.5,-144 503.09,-126.28 513.91,-125.72 518.5,-108 522.51,-92.51 528.54,-84.46 518.5,-72 493.09,-40.45 374.37,-26.68 312.79,-21.57"/>
<polygon fill="grey" stroke="grey" stroke-width="2" points="312.95,-18.07 302.7,-20.77 312.39,-25.05 312.95,-18.07"/>
</g>
<!-- 8 -->
<g id="node9" class="node">
<title>8</title>
<path fill="none" stroke="#56d8b9" stroke-width="2" d="M685,-324C685,-324 564,-324 564,-324 558,-324 552,-318 552,-312 552,-312 552,-300 552,-300 552,-294 558,-288 564,-288 564,-288 685,-288 685,-288 691,-288 697,-294 697,-300 697,-300 697,-312 697,-312 697,-318 691,-324 685,-324"/>
<text text-anchor="middle" x="624.5" y="-309" font-family="sans" font-size="10.00">raps_survey_python_features</text>
<text text-anchor="middle" x="624.5" y="-298" font-family="sans" font-size="10.00">provider_key: rey</text>
</g>
<!-- 5&#45;&gt;8 -->
<g id="edge18" class="edge">
<title>5&#45;&gt;8</title>
<path fill="none" stroke="grey" stroke-width="2" d="M555.99,-359.7C567.46,-350.88 581.56,-340.03 593.98,-330.47"/>
<polygon fill="grey" stroke="grey" stroke-width="2" points="596.47,-332.98 602.26,-324.1 592.2,-327.43 596.47,-332.98"/>
</g>
<!-- 6 -->
<g id="node7" class="node">
<title>6</title>
<path fill="none" stroke="#bed856" stroke-width="2" stroke-dasharray="5,2" d="M656,-470.5C656,-470.5 557,-470.5 557,-470.5 551,-470.5 545,-464.5 545,-458.5 545,-458.5 545,-446.5 545,-446.5 545,-440.5 551,-434.5 557,-434.5 557,-434.5 656,-434.5 656,-434.5 662,-434.5 668,-440.5 668,-446.5 668,-446.5 668,-458.5 668,-458.5 668,-464.5 662,-470.5 656,-470.5"/>
<text text-anchor="middle" x="606.5" y="-455.5" font-family="sans" font-size="10.00">process_time_segments</text>
<text text-anchor="middle" x="606.5" y="-444.5" font-family="sans" font-size="10.00">pid: e1002</text>
</g>
<!-- 6&#45;&gt;5 -->
<g id="edge15" class="edge">
<title>6&#45;&gt;5</title>
<path fill="none" stroke="grey" stroke-width="2" d="M589.2,-434.32C579.84,-425.02 568.12,-413.38 557.84,-403.18"/>
<polygon fill="grey" stroke="grey" stroke-width="2" points="560.24,-400.62 550.68,-396.06 555.3,-405.59 560.24,-400.62"/>
</g>
<!-- 6&#45;&gt;8 -->
<g id="edge19" class="edge">
<title>6&#45;&gt;8</title>
<path fill="none" stroke="grey" stroke-width="2" d="M608.64,-434.36C611.72,-409.59 617.46,-363.55 621.12,-334.13"/>
<polygon fill="grey" stroke="grey" stroke-width="2" points="624.6,-334.48 622.37,-324.12 617.66,-333.61 624.6,-334.48"/>
</g>
<!-- 7&#45;&gt;0 -->
<g id="edge5" class="edge">
<title>7&#45;&gt;0</title>
<path fill="none" stroke="grey" stroke-width="2" d="M163,-287.94C150.52,-278.99 137.31,-266.79 130.5,-252 123.8,-237.47 127.69,-231.75 130.5,-216 142.46,-148.86 139.54,-124.14 183.5,-72 198.24,-54.52 220.29,-41.53 239.11,-32.79"/>
<polygon fill="grey" stroke="grey" stroke-width="2" points="240.59,-35.97 248.33,-28.73 237.76,-29.56 240.59,-35.97"/>
</g>
<!-- 9 -->
<g id="node10" class="node">
<title>9</title>
<path fill="none" stroke="#567bd8" stroke-width="2" d="M269.5,-252C269.5,-252 151.5,-252 151.5,-252 145.5,-252 139.5,-246 139.5,-240 139.5,-240 139.5,-228 139.5,-228 139.5,-222 145.5,-216 151.5,-216 151.5,-216 269.5,-216 269.5,-216 275.5,-216 281.5,-222 281.5,-228 281.5,-228 281.5,-240 281.5,-240 281.5,-246 275.5,-252 269.5,-252"/>
<text text-anchor="middle" x="210.5" y="-237" font-family="sans" font-size="10.00">join_features_from_providers</text>
<text text-anchor="middle" x="210.5" y="-226" font-family="sans" font-size="10.00">sensor_key: raps_survey</text>
</g>
<!-- 7&#45;&gt;9 -->
<g id="edge20" class="edge">
<title>7&#45;&gt;9</title>
<path fill="none" stroke="grey" stroke-width="2" d="M196.95,-287.7C198.95,-279.9 201.37,-270.51 203.6,-261.83"/>
<polygon fill="grey" stroke="grey" stroke-width="2" points="207,-262.66 206.1,-252.1 200.22,-260.92 207,-262.66"/>
</g>
<!-- 8&#45;&gt;0 -->
<g id="edge6" class="edge">
<title>8&#45;&gt;0</title>
<path fill="none" stroke="grey" stroke-width="2" d="M661.2,-287.93C713.7,-260.95 800.65,-205.17 769.5,-144 744.81,-95.52 721,-92.24 670.5,-72 605.76,-46.06 398.04,-28.11 312.67,-21.65"/>
<polygon fill="grey" stroke="grey" stroke-width="2" points="312.88,-18.16 302.65,-20.9 312.36,-25.14 312.88,-18.16"/>
</g>
<!-- 10 -->
<g id="node11" class="node">
<title>10</title>
<path fill="none" stroke="#567bd8" stroke-width="2" d="M684.5,-252C684.5,-252 566.5,-252 566.5,-252 560.5,-252 554.5,-246 554.5,-240 554.5,-240 554.5,-228 554.5,-228 554.5,-222 560.5,-216 566.5,-216 566.5,-216 684.5,-216 684.5,-216 690.5,-216 696.5,-222 696.5,-228 696.5,-228 696.5,-240 696.5,-240 696.5,-246 690.5,-252 684.5,-252"/>
<text text-anchor="middle" x="625.5" y="-237" font-family="sans" font-size="10.00">join_features_from_providers</text>
<text text-anchor="middle" x="625.5" y="-226" font-family="sans" font-size="10.00">sensor_key: raps_survey</text>
</g>
<!-- 8&#45;&gt;10 -->
<g id="edge21" class="edge">
<title>8&#45;&gt;10</title>
<path fill="none" stroke="grey" stroke-width="2" d="M624.75,-287.7C624.86,-279.98 624.99,-270.71 625.11,-262.11"/>
<polygon fill="grey" stroke="grey" stroke-width="2" points="628.61,-262.15 625.26,-252.1 621.61,-262.05 628.61,-262.15"/>
</g>
<!-- 9&#45;&gt;0 -->
<g id="edge7" class="edge">
<title>9&#45;&gt;0</title>
<path fill="none" stroke="grey" stroke-width="2" d="M191.9,-215.76C182.97,-206.2 173.21,-193.53 168.5,-180 163.24,-164.89 162.95,-159.01 168.5,-144 183.85,-102.48 219.82,-65.42 245.83,-42.64"/>
<polygon fill="grey" stroke="grey" stroke-width="2" points="248.22,-45.2 253.55,-36.04 243.67,-39.88 248.22,-45.2"/>
</g>
<!-- 11 -->
<g id="node12" class="node">
<title>11</title>
<path fill="none" stroke="#56a2d8" stroke-width="2" d="M401.5,-180C401.5,-180 189.5,-180 189.5,-180 183.5,-180 177.5,-174 177.5,-168 177.5,-168 177.5,-156 177.5,-156 177.5,-150 183.5,-144 189.5,-144 189.5,-144 401.5,-144 401.5,-144 407.5,-144 413.5,-150 413.5,-156 413.5,-156 413.5,-168 413.5,-168 413.5,-174 407.5,-180 401.5,-180"/>
<text text-anchor="middle" x="295.5" y="-159.5" font-family="sans" font-size="10.00">merge_sensor_features_for_individual_participants</text>
</g>
<!-- 9&#45;&gt;11 -->
<g id="edge22" class="edge">
<title>9&#45;&gt;11</title>
<path fill="none" stroke="grey" stroke-width="2" d="M231.51,-215.7C242.22,-206.88 255.39,-196.03 267,-186.47"/>
<polygon fill="grey" stroke="grey" stroke-width="2" points="269.24,-189.16 274.73,-180.1 264.79,-183.76 269.24,-189.16"/>
</g>
<!-- 10&#45;&gt;0 -->
<g id="edge8" class="edge">
<title>10&#45;&gt;0</title>
<path fill="none" stroke="grey" stroke-width="2" d="M696.75,-219.38C718.3,-211.57 739.65,-199.29 752.5,-180 761.37,-166.68 761.31,-157.36 752.5,-144 703.24,-69.29 416.3,-33.24 312.75,-22.53"/>
<polygon fill="grey" stroke="grey" stroke-width="2" points="313.05,-19.04 302.74,-21.52 312.34,-26.01 313.05,-19.04"/>
</g>
<!-- 12 -->
<g id="node13" class="node">
<title>12</title>
<path fill="none" stroke="#56a2d8" stroke-width="2" d="M731.5,-180C731.5,-180 519.5,-180 519.5,-180 513.5,-180 507.5,-174 507.5,-168 507.5,-168 507.5,-156 507.5,-156 507.5,-150 513.5,-144 519.5,-144 519.5,-144 731.5,-144 731.5,-144 737.5,-144 743.5,-150 743.5,-156 743.5,-156 743.5,-168 743.5,-168 743.5,-174 737.5,-180 731.5,-180"/>
<text text-anchor="middle" x="625.5" y="-159.5" font-family="sans" font-size="10.00">merge_sensor_features_for_individual_participants</text>
</g>
<!-- 10&#45;&gt;12 -->
<g id="edge23" class="edge">
<title>10&#45;&gt;12</title>
<path fill="none" stroke="grey" stroke-width="2" d="M625.5,-215.7C625.5,-207.98 625.5,-198.71 625.5,-190.11"/>
<polygon fill="grey" stroke="grey" stroke-width="2" points="629,-190.1 625.5,-180.1 622,-190.1 629,-190.1"/>
</g>
<!-- 11&#45;&gt;0 -->
<g id="edge9" class="edge">
<title>11&#45;&gt;0</title>
<path fill="none" stroke="grey" stroke-width="2" d="M280.75,-143.63C273.41,-133.85 265.31,-121.01 261.5,-108 255.48,-87.45 259.9,-63.43 265.32,-45.53"/>
<polygon fill="grey" stroke="grey" stroke-width="2" points="268.64,-46.61 268.46,-36.02 262,-44.41 268.64,-46.61"/>
</g>
<!-- 13 -->
<g id="node14" class="node">
<title>13</title>
<path fill="none" stroke="#d87556" stroke-width="2" d="M497.5,-108C497.5,-108 315.5,-108 315.5,-108 309.5,-108 303.5,-102 303.5,-96 303.5,-96 303.5,-84 303.5,-84 303.5,-78 309.5,-72 315.5,-72 315.5,-72 497.5,-72 497.5,-72 503.5,-72 509.5,-78 509.5,-84 509.5,-84 509.5,-96 509.5,-96 509.5,-102 503.5,-108 497.5,-108"/>
<text text-anchor="middle" x="406.5" y="-87.5" font-family="sans" font-size="10.00">merge_sensor_features_for_all_participants</text>
</g>
<!-- 11&#45;&gt;13 -->
<g id="edge24" class="edge">
<title>11&#45;&gt;13</title>
<path fill="none" stroke="grey" stroke-width="2" d="M322.65,-143.88C337.03,-134.81 354.88,-123.55 370.41,-113.76"/>
<polygon fill="grey" stroke="grey" stroke-width="2" points="372.65,-116.48 379.24,-108.19 368.92,-110.56 372.65,-116.48"/>
</g>
<!-- 12&#45;&gt;0 -->
<g id="edge10" class="edge">
<title>12&#45;&gt;0</title>
<path fill="none" stroke="grey" stroke-width="2" d="M616.23,-143.86C604.17,-123.31 581.09,-89.47 551.5,-72 475.32,-27.01 368.6,-19.17 312.82,-18.41"/>
<polygon fill="grey" stroke="grey" stroke-width="2" points="312.71,-14.91 302.69,-18.35 312.66,-21.91 312.71,-14.91"/>
</g>
<!-- 12&#45;&gt;13 -->
<g id="edge25" class="edge">
<title>12&#45;&gt;13</title>
<path fill="none" stroke="grey" stroke-width="2" d="M572.21,-143.97C541.34,-134.1 502.3,-121.62 469.87,-111.25"/>
<polygon fill="grey" stroke="grey" stroke-width="2" points="470.62,-107.82 460.03,-108.11 468.49,-114.49 470.62,-107.82"/>
</g>
<!-- 13&#45;&gt;0 -->
<g id="edge11" class="edge">
<title>13&#45;&gt;0</title>
<path fill="none" stroke="grey" stroke-width="2" d="M374.45,-71.88C355.49,-61.74 331.41,-48.88 311.76,-38.37"/>
<polygon fill="grey" stroke="grey" stroke-width="2" points="313.26,-35.21 302.79,-33.58 309.96,-41.38 313.26,-35.21"/>
</g>
</g>
</svg>
